<?xml version="1.0" encoding="UTF-8"?>
<svg xmlns="http://www.w3.org/2000/svg" width="172" height="44" viewBox="0 0 172 44" fill="none">
  <path d="M15.6531 16.4495C16.7384 17.5348 18.1775 18.1305 19.711 18.1305H24.8481C26.3816 18.1305 27.8207 17.5348 28.9059 16.4495L38.4017 6.98324C38.4312 6.95375 38.4312 6.90066 38.4017 6.87117C38.3369 6.8063 38.2661 6.74142 38.2071 6.67654C38.2071 6.66474 38.1953 6.64705 38.1776 6.63526C37.3991 5.84492 36.5557 5.11357 35.671 4.44709C35.6415 4.4235 35.612 4.40581 35.5825 4.38222C35.3643 4.21707 35.1401 4.05783 34.916 3.89858C34.9101 3.89858 34.8983 3.89858 34.8924 3.89858C34.8099 3.8455 34.7332 3.78062 34.6506 3.72754C34.6211 3.70394 34.5739 3.70984 34.5503 3.73933L25.3553 12.893C25.2197 13.0287 25.0369 13.1054 24.8481 13.1054H24.8009V0.20053C24.8009 0.159244 24.7714 0.123853 24.7302 0.123853C24.6299 0.112057 24.5296 0.106166 24.4294 0.0943703C24.4235 0.0943703 24.4176 0.0943703 24.4058 0.0943703C24.3527 0.0943703 24.2996 0.0943678 24.2406 0.0825717C23.9634 0.0589797 23.6862 0.0353841 23.4031 0.0235881C23.3559 0.0235881 23.3087 0.0235881 23.2616 0.0235881C22.9372 0.0117921 22.6069 0 22.2766 0C21.9463 0 21.616 0.0117921 21.2916 0.0235881C21.2444 0.0235881 21.1973 0.0235881 21.156 0.0235881C20.8788 0.0353841 20.5957 0.0589797 20.3184 0.0825717C20.2654 0.0825717 20.2123 0.0825743 20.1592 0.0943703C20.1533 0.0943703 20.1474 0.0943703 20.1356 0.0943703C20.0353 0.100268 19.9351 0.112057 19.8348 0.123853C19.7935 0.123853 19.764 0.165142 19.764 0.20053V13.0995H19.7051C19.5163 13.0995 19.3335 13.0228 19.1978 12.8871L10.0146 3.73344C10.0146 3.73344 9.94385 3.70395 9.91436 3.72164C9.83179 3.77472 9.74922 3.8396 9.67255 3.89268C9.66665 3.89268 9.65485 3.89268 9.64895 3.89268C9.42483 4.04603 9.2125 4.20528 8.99427 4.36452C8.95889 4.38811 8.9294 4.41171 8.89401 4.4353C8.24523 4.92484 7.62004 5.44386 7.03024 5.99827C6.81201 6.2106 6.59379 6.41113 6.38736 6.62935C6.37556 6.64115 6.36966 6.65295 6.36376 6.67064C6.29889 6.73552 6.22811 6.8004 6.16323 6.86528C6.13374 6.89477 6.13374 6.94785 6.16323 6.97734L15.6531 16.4436V16.4495Z" fill="#F1EDE1"></path>
  <path d="M17.3107 22.1823C16.5439 20.873 15.323 19.9293 13.8603 19.5341L0.949579 16.0071C0.908293 15.9953 0.861109 16.0189 0.855211 16.0602C0.825721 16.1546 0.802129 16.2489 0.778537 16.3433C0.778537 16.3492 0.766741 16.361 0.760843 16.3728C0.737251 16.4613 0.719557 16.5438 0.695965 16.6323C0.678271 16.6913 0.666475 16.7503 0.654679 16.8093C0.578005 17.1101 0.507229 17.4108 0.442351 17.7175C0.418759 17.8296 0.395166 17.9417 0.371574 18.0596C0.32439 18.3014 0.283104 18.5433 0.241818 18.7851C0.218226 18.9266 0.200532 19.0741 0.17694 19.2156C0.159246 19.3631 0.135654 19.5046 0.11796 19.658C0.0884701 19.8939 0.0648781 20.1298 0.0471841 20.3716C0.0471841 20.4424 0.02949 20.5132 0.023592 20.5781C0.023592 20.5899 0.023592 20.5958 0.023592 20.6076C0.017694 20.7019 0.00589801 20.8022 0 20.9025C0 20.9438 0.023592 20.9732 0.0589801 20.985L12.5274 24.3882C12.7102 24.4354 12.8636 24.5592 12.9579 24.7185L12.9874 24.7716L1.86967 31.1886C1.83428 31.2063 1.81659 31.2535 1.83428 31.2889C1.86967 31.3714 1.91685 31.454 1.95224 31.5366C1.95224 31.5543 1.95224 31.572 1.96404 31.5838C2.21175 32.1205 2.47716 32.6454 2.76027 33.1585L2.94311 33.4711L3.10825 33.7601C3.41495 34.2732 3.73934 34.7687 4.08732 35.2523C4.09322 35.2641 4.10501 35.2759 4.11681 35.2818C4.16989 35.3585 4.22297 35.4352 4.27606 35.5177C4.29965 35.5531 4.34683 35.559 4.37632 35.5413L15.5118 29.1125C15.6061 29.2835 15.6356 29.4782 15.5884 29.661L12.3032 42.2179C12.2973 42.2533 12.3091 42.2945 12.3445 42.3063C12.4271 42.3476 12.5097 42.3889 12.5981 42.4302C12.6099 42.442 12.6217 42.4479 12.6335 42.4597C13.9075 43.0672 15.2463 43.5626 16.6383 43.9224C16.6501 43.9224 16.6678 43.9224 16.6796 43.9224C16.768 43.946 16.8624 43.9696 16.9568 43.9932C16.9981 44.005 17.0393 43.9755 17.0511 43.9342L20.4543 30.935C20.8436 29.4546 20.6312 27.9093 19.8586 26.5822L17.293 22.1823H17.2989H17.3107Z" fill="#F1EDE1"></path>
  <path d="M44.5416 20.5724C44.5416 20.4957 44.5239 20.4249 44.518 20.3541C44.5003 20.1359 44.4767 19.9236 44.4531 19.7113C44.4354 19.5402 44.4118 19.3692 44.3882 19.1981C44.3705 19.0684 44.3469 18.9386 44.3292 18.8089C44.288 18.5434 44.2408 18.2839 44.1877 18.0303C44.17 17.9359 44.1464 17.8357 44.1287 17.7354C44.0579 17.3874 43.9754 17.0454 43.8869 16.6974C43.8869 16.6797 43.881 16.662 43.8751 16.6443C43.8515 16.5558 43.8338 16.4614 43.8102 16.373C43.8102 16.3612 43.7984 16.3494 43.7925 16.3435C43.7689 16.2491 43.7453 16.1547 43.7158 16.0663C43.7041 16.025 43.6628 16.0014 43.6215 16.0132L30.7048 19.5402C29.2421 19.9413 28.0154 20.8791 27.2545 22.1884L24.6889 26.5883C23.9221 27.9036 23.7098 29.4666 24.0932 30.9411L27.4963 43.9403C27.5081 43.9816 27.5494 44.0051 27.5907 43.9992C27.6851 43.9757 27.7735 43.9521 27.862 43.9285H27.9092C29.3011 43.5628 30.64 43.0733 31.9139 42.4658C31.9257 42.4658 31.9434 42.4481 31.9493 42.4363C32.0319 42.395 32.1204 42.3537 32.2029 42.3124C32.2383 42.2947 32.2501 42.2593 32.2442 42.2239L28.9531 29.6671C28.906 29.4843 28.9295 29.2896 29.0298 29.1245L40.1711 35.5533C40.2065 35.571 40.2537 35.5651 40.2714 35.5297C40.3245 35.453 40.3776 35.3764 40.4307 35.2997C40.4425 35.2938 40.4543 35.282 40.4601 35.2702C40.6194 35.0402 40.7786 34.8102 40.9261 34.5801C40.9379 34.5565 40.9556 34.5388 40.9733 34.5153C41.5808 33.5893 42.1234 32.6102 42.5893 31.5957C42.5952 31.578 42.6011 31.5603 42.6011 31.5485C42.6424 31.466 42.6837 31.3834 42.7191 31.3008C42.7368 31.2654 42.7191 31.2183 42.6837 31.2006L31.5601 24.7776L31.5895 24.7305C31.6839 24.5653 31.8373 24.4474 32.0201 24.4002L44.4944 20.9911C44.5298 20.9793 44.5534 20.9498 44.5534 20.9085C44.5534 20.8142 44.5416 20.7139 44.5298 20.6136C44.5298 20.6019 44.5298 20.596 44.5298 20.5842L44.5416 20.5724Z" fill="#F1EDE1"></path>
  <path d="M137.081 32.1089C132.97 32.1089 130.894 29.5668 130.894 24.4827C130.894 19.3986 132.97 17.0277 137.081 17.0277C140.673 17.0277 142.165 18.6378 142.572 21.2034H146.654C146.312 16.8861 143.262 13.3886 137.087 13.3886C130.912 13.3886 126.831 17.4582 126.831 24.4886C126.831 31.5191 130.729 35.7184 137.087 35.7184C143.445 35.7184 146.624 32.3684 146.789 27.3728H142.767C142.637 30.251 140.856 32.1206 137.087 32.1206L137.081 32.1089Z" fill="#F1EDE1"></path>
  <path d="M63.8341 13.383C57.4347 13.383 53.5361 17.4526 53.5361 24.483C53.5361 31.5135 57.4347 35.7128 63.8341 35.7128C70.2334 35.7128 73.2001 32.581 73.5363 27.8744H69.5079C69.213 30.4577 67.4731 32.1092 63.8282 32.1092C60.1832 32.1092 57.8535 29.9446 57.6824 25.6626H73.5304C73.6601 24.4771 73.6189 23.5924 73.5717 22.5367C73.2768 17.2816 70.0093 13.383 63.8282 13.383M57.7768 22.3126C58.3253 19.0097 60.4014 16.9867 63.7928 16.9867C67.1841 16.9867 69.2602 19.0097 69.5138 22.3126H57.7768Z" fill="#F1EDE1"></path>
  <path d="M114.804 13.383C108.405 13.383 104.506 17.4526 104.506 24.483C104.506 31.5135 108.405 35.7128 114.804 35.7128C121.204 35.7128 124.17 32.581 124.506 27.8744H120.478C120.183 30.4577 118.443 32.1092 114.798 32.1092C111.153 32.1092 108.824 29.9033 108.653 25.6272H124.501C124.63 24.4417 124.589 23.5983 124.542 22.5367C124.247 17.2816 120.979 13.383 114.798 13.383H114.804ZM108.741 22.3126C109.29 19.0097 111.366 16.9808 114.757 16.9808C118.148 16.9808 120.225 19.0038 120.478 22.3126H108.741Z" fill="#F1EDE1"></path>
  <path d="M92.4038 12.2677V15.6178H83.486V11.6897C83.486 11.0704 83.9873 10.575 84.6007 10.575H90.192V6.68822H84.7894C81.7107 6.68822 79.2099 9.18308 79.2099 12.2677V15.6178H74.7451V18.9679H79.2158V35.7123H83.4978V18.9679H92.4155V35.7123H96.6975V18.9679H103.398V15.6178H96.6975V11.6897C96.6916 11.0704 97.187 10.575 97.8063 10.575H103.398V6.68822H97.9951C94.9104 6.68822 92.4155 9.18308 92.4155 12.2677H92.4038Z" fill="#F1EDE1"></path>
  <path d="M171.585 6.68822H167.456V10.5868H171.585V6.68822Z" fill="#F1EDE1"></path>
  <path d="M171.585 13.383H167.456V35.7069H171.585V13.383Z" fill="#F1EDE1"></path>
  <path d="M156.651 6.68804H152.369V13.3882H147.898V16.7382H152.369V31.3594C152.369 33.7658 154.315 35.7121 156.722 35.7121H164.106V32.02H157.766C157.147 32.02 156.651 31.5186 156.651 30.9053V16.7323H164.112V13.3823H156.651V6.68214V6.68804Z" fill="#F1EDE1"></path>
</svg>
